<?xml version="1.0" standalone="no"?><!DOCTYPE svg PUBLIC "-//W3C//DTD SVG 1.1//EN" "http://www.w3.org/Graphics/SVG/1.1/DTD/svg11.dtd"><svg t="1684577054370" class="icon" viewBox="0 0 1024 1024" version="1.1" xmlns="http://www.w3.org/2000/svg" p-id="4743" xmlns:xlink="http://www.w3.org/1999/xlink" width="300" height="300"><path d="M320 170.666667A234.666667 234.666667 0 0 0 85.333333 405.333333c0 21.333333 3.84 42.666667 9.386667 64H268.8l54.186667-143.786666c12.8-34.133333 63.146667-37.546667 79.36 0L490.666667 554.666667l25.173333-60.586667c5.546667-14.08 20.48-24.746667 38.826667-24.746667h374.613333c5.546667-21.333333 9.386667-42.666667 9.386667-64A234.666667 234.666667 0 0 0 704 170.666667c-79.36 0-149.333333 39.68-192 99.84C469.333333 210.346667 399.36 170.666667 320 170.666667M128 533.333333a42.666667 42.666667 0 0 0-42.666667 42.666667 42.666667 42.666667 0 0 0 42.666667 42.666667h104.106667L469.333333 853.333333c42.666667 38.4 42.666667 38.4 85.333334 0l237.226666-234.666666H896a42.666667 42.666667 0 0 0 42.666667-42.666667 42.666667 42.666667 0 0 0-42.666667-42.666667h-324.266667l-39.68 98.133334c-17.066667 43.093333-66.133333 37.12-81.92 1.28L362.666667 405.333333l-40.96 99.413334c-6.4 16.213333-20.906667 28.586667-40.106667 28.586666H128z" fill="#1296db" p-id="4744"></path></svg>